<svg xmlns="http://www.w3.org/2000/svg" width="1024" height="1024" viewBox="0 0 1024 1024" fill="none">
  <defs>
    <filter id="lineGlow" x="-10%" y="-40%" width="120%" height="180%" color-interpolation-filters="sRGB">
      <feGaussianBlur stdDeviation="3" result="blur"/>
      <feMerge>
        <feMergeNode in="blur"/>
        <feMergeNode in="SourceGraphic"/>
      </feMerge>
    </filter>
    <linearGradient id="fadeLine" x1="80" y1="0" x2="944" y2="0">
      <stop stop-color="#ff163f" stop-opacity="0"/>
      <stop offset="0.18" stop-color="#ff163f" stop-opacity="0.45"/>
      <stop offset="0.5" stop-color="#ff6b7c" stop-opacity="0.34"/>
      <stop offset="0.82" stop-color="#ff163f" stop-opacity="0.42"/>
      <stop offset="1" stop-color="#ff163f" stop-opacity="0"/>
    </linearGradient>
    <linearGradient id="barFill" x1="0" y1="0" x2="1" y2="0">
      <stop stop-color="#ff073a" stop-opacity="0"/>
      <stop offset="0.14" stop-color="#ff073a" stop-opacity="0.28"/>
      <stop offset="0.5" stop-color="#ff8a99" stop-opacity="0.2"/>
      <stop offset="0.86" stop-color="#ff073a" stop-opacity="0.25"/>
      <stop offset="1" stop-color="#ff073a" stop-opacity="0"/>
    </linearGradient>
  </defs>

  <g opacity="0.9" filter="url(#lineGlow)">
    <path d="M95 178H929" stroke="url(#fadeLine)" stroke-width="2"/>
    <path d="M126 236H872" stroke="url(#fadeLine)" stroke-width="1.5" opacity="0.7"/>
    <path d="M64 315H408M502 315H958" stroke="url(#fadeLine)" stroke-width="2.5" opacity="0.85"/>
    <path d="M143 397H528M615 397H903" stroke="url(#fadeLine)" stroke-width="1.5" opacity="0.62"/>
    <path d="M76 486H282M371 486H731M798 486H951" stroke="url(#fadeLine)" stroke-width="2" opacity="0.7"/>
    <path d="M111 568H914" stroke="url(#fadeLine)" stroke-width="1.5" opacity="0.58"/>
    <path d="M47 652H367M451 652H981" stroke="url(#fadeLine)" stroke-width="2.5" opacity="0.76"/>
    <path d="M156 736H448M536 736H867" stroke="url(#fadeLine)" stroke-width="1.5" opacity="0.62"/>
    <path d="M89 827H932" stroke="url(#fadeLine)" stroke-width="2" opacity="0.7"/>
  </g>

  <g opacity="0.58">
    <rect x="156" y="274" width="248" height="18" rx="3" fill="url(#barFill)"/>
    <rect x="614" y="285" width="194" height="10" rx="2" fill="url(#barFill)"/>
    <rect x="316" y="437" width="172" height="13" rx="2" fill="url(#barFill)"/>
    <rect x="547" y="454" width="312" height="18" rx="3" fill="url(#barFill)"/>
    <rect x="86" y="602" width="258" height="12" rx="2" fill="url(#barFill)"/>
    <rect x="682" y="625" width="224" height="20" rx="3" fill="url(#barFill)"/>
    <rect x="251" y="781" width="305" height="15" rx="3" fill="url(#barFill)"/>
  </g>

  <g opacity="0.5">
    <rect x="210" y="339" width="66" height="4" fill="#ff4b66"/>
    <rect x="289" y="339" width="22" height="4" fill="#ff9aa8"/>
    <rect x="728" y="521" width="82" height="5" fill="#ff4b66"/>
    <rect x="824" y="521" width="26" height="5" fill="#ff9aa8"/>
    <rect x="421" y="707" width="94" height="4" fill="#ff4b66"/>
    <rect x="529" y="707" width="28" height="4" fill="#ff9aa8"/>
  </g>
</svg>
